<svg width="691" height="689" viewBox="0 0 691 689" fill="none" xmlns="http://www.w3.org/2000/svg">
<circle cx="460.33" cy="229.809" r="162.5" transform="rotate(45.1777 460.33 229.809)" fill="#5691CF"/>
<circle cx="229.809" cy="458.904" r="162.5" transform="rotate(45.1777 229.809 458.904)" fill="#FBE262"/>
<path fill-rule="evenodd" clip-rule="evenodd" d="M271.853 10H439.336L557.186 678.365L553.588 679H465.91L412.13 374H299.059L245.279 679H157.523L154 678.379L271.853 10ZM355.594 53.3696L404.724 332H306.464L355.594 53.3696ZM206.893 436.068C194.249 448.809 194.328 469.386 207.068 482.03C219.808 494.673 240.386 494.595 253.03 481.855C265.673 469.114 265.595 448.537 252.854 435.893C240.114 423.249 219.536 423.328 206.893 436.068Z" fill="#C5BBBB"/>
<g style="mix-blend-mode:hard-light">
<path fill-rule="evenodd" clip-rule="evenodd" d="M267.482 9.62402H434.964L552.815 677.989L549.216 678.624H461.539L407.759 373.624H294.688L240.908 678.624H153.152L149.629 678.003L267.482 9.62402ZM351.223 52.9936L400.353 331.624H302.093L351.223 52.9936ZM206.893 436.069C194.25 448.809 194.328 469.387 207.069 482.03C219.809 494.674 240.387 494.595 253.03 481.855C265.674 469.115 265.595 448.537 252.855 435.893C240.114 423.25 219.537 423.328 206.893 436.069Z" fill="#3F4246" fill-opacity="0.8"/>
</g>
<g style="mix-blend-mode:hard-light">
<path fill-rule="evenodd" clip-rule="evenodd" d="M445.964 9.62402H278.482L202.483 440.638C197.418 448.269 195.92 457.563 197.98 466.177L160.629 678.003L164.152 678.624H251.908L305.688 373.624H418.759L472.539 678.624H560.216L563.815 677.989L445.964 9.62402ZM362.223 52.9936L411.353 331.624H313.093L362.223 52.9936ZM206.517 435.692C193.874 448.433 193.952 469.011 206.693 481.654C219.433 494.298 240.011 494.219 252.654 481.479C265.298 468.738 265.219 448.161 252.479 435.517C239.739 422.874 219.161 422.952 206.517 435.692Z" fill="#3F4246" fill-opacity="0.8"/>
</g>
<path fill-rule="evenodd" clip-rule="evenodd" d="M186 632.849C245.394 646.954 310.505 630.946 356.989 584.75C428.48 513.701 428.839 398.149 357.789 326.657C327.438 296.117 288.965 278.558 249.275 274.001L245.957 292.816C282.04 296.801 317.051 312.68 344.633 340.433C408.774 404.974 408.451 509.292 343.91 573.434C301.764 615.319 242.656 629.715 188.849 616.69L186 632.849Z" fill="#3F4246" fill-opacity="0.8"/>
<path fill-rule="evenodd" clip-rule="evenodd" d="M260.857 2H428.339L546.19 670.365L542.591 671H454.914L401.134 366H288.062L234.283 671H146.527L143.004 670.379L260.857 2ZM344.598 45.3696L393.728 324H295.468L344.598 45.3696ZM206.663 436.293C194.146 449.157 194.427 469.733 207.292 482.25C220.156 494.768 240.732 494.486 253.249 481.622C265.767 468.758 265.485 448.182 252.621 435.664C239.757 423.147 219.181 423.428 206.663 436.293Z" fill="#FDFBFB"/>
<circle cx="459.82" cy="229.82" r="32.5" transform="rotate(134.781 459.82 229.82)" fill="black"/>
<path fill-rule="evenodd" clip-rule="evenodd" d="M186.395 629.99C244.89 643.771 308.961 627.957 354.726 582.476C425.238 512.399 425.591 398.43 355.515 327.918C325.662 297.879 287.841 280.572 248.809 276.021L245.537 294.577C281.012 298.565 315.418 314.215 342.54 341.506C405.803 405.162 405.484 508.051 341.827 571.314C300.34 612.545 242.19 626.768 189.205 614.053L186.395 629.99Z" fill="#FDFBFB"/>
<circle cx="229.96" cy="458.961" r="32.5" transform="rotate(134.781 229.96 458.961)" fill="#880808"/>
</svg>
