<svg width="53" height="54" viewBox="0 0 53 54" xmlns="http://www.w3.org/2000/svg">
  <path
    d="M2.63158 53.1316C1.93364 53.1316 1.26429 52.8543 0.770772 52.3608C0.277255 51.8673 0 51.1979 0 50.5V3.13158C0 2.43364 0.277255 1.76429 0.770772 1.27077C1.26429 0.777255 1.93364 0.5 2.63158 0.5H39.4737C40.1716 0.5 40.841 0.777255 41.3345 1.27077C41.828 1.76429 42.1053 2.43364 42.1053 3.13158V11.0263H36.8421V5.76316H5.26316V47.8684H36.8421V42.6053H42.1053V50.5C42.1053 51.1979 41.828 51.8673 41.3345 52.3608C40.841 52.8543 40.1716 53.1316 39.4737 53.1316H2.63158Z"
   />
  <path
    d="M39.4882 18.2698L52.2559 26.3769C52.752 26.6902 53 27.1341 53 27.7085C53 28.2829 52.752 28.7267 52.2559 29.0401L39.4882 37.1471C38.9661 37.4865 38.4371 37.5064 37.9013 37.2066C37.3666 36.9059 37.0992 36.4421 37.0992 35.8155V29.275H24.5666C24.1227 29.275 15 29.275 14.5 29.275C14.5 28.775 14.5 28.1523 14.5 27.7085C14.5 27.2646 14.5 26.6419 14.5 26.1419C15 26.1419 24.1227 26.1419 24.5666 26.1419H37.0992V19.6014C37.0992 18.9748 37.3666 18.5116 37.9013 18.2119C38.4371 17.9111 38.9661 17.9304 39.4882 18.2698Z"
    id="arrow"/>
</svg>
