<svg width="20" height="20" viewBox="0 0 20 20" xmlns="http://www.w3.org/2000/svg">
  <path
    d="M12.4754 0.030129C13.4702 0.276514 14.4223 0.6712 15.2997 1.20093C15.4756 1.30708 15.6156 1.46355 15.7017 1.65011C15.7877 1.83667 15.8159 2.04476 15.7824 2.24747C15.6664 2.95508 15.842 3.49632 16.1727 3.82702C16.5034 4.15772 17.0456 4.33334 17.7522 4.21729C17.9549 4.18384 18.163 4.21196 18.3496 4.29801C18.5362 4.38406 18.6926 4.52408 18.7988 4.69999C19.3285 5.57735 19.7232 6.52945 19.9696 7.52429C20.0192 7.72388 20.0077 7.93376 19.9366 8.12676C19.8656 8.31976 19.7383 8.48698 19.5711 8.60677C18.9888 9.02477 18.7289 9.53109 18.7289 9.99941C18.7289 10.4677 18.9888 10.9751 19.5711 11.3931C19.7381 11.5128 19.8653 11.6798 19.9363 11.8726C20.0074 12.0654 20.0189 12.2751 19.9696 12.4745C19.7232 13.4694 19.3285 14.4215 18.7988 15.2988C18.6926 15.4747 18.5362 15.6148 18.3496 15.7008C18.163 15.7869 17.9549 15.815 17.7522 15.7815C17.0446 15.6655 16.5034 15.8421 16.1727 16.1718C15.842 16.5025 15.6664 17.0448 15.7824 17.7514C15.8161 17.9542 15.7881 18.1625 15.702 18.3493C15.6159 18.5361 15.4758 18.6927 15.2997 18.7989C14.4223 19.3286 13.4702 19.7233 12.4754 19.9697C12.2758 20.0193 12.0659 20.0079 11.8729 19.9368C11.6799 19.8658 11.5127 19.7384 11.3929 19.5712C10.9749 18.9879 10.4686 18.7291 10.0003 18.7291C9.53197 18.7291 9.02461 18.9879 8.60662 19.5712C8.4869 19.7382 8.31985 19.8654 8.12706 19.9365C7.93427 20.0075 7.7246 20.0191 7.52517 19.9697C6.53034 19.7233 5.57824 19.3286 4.70086 18.7989C4.52477 18.6927 4.38462 18.5361 4.29856 18.3493C4.2125 18.1625 4.18449 17.9542 4.21816 17.7514C4.33421 17.0448 4.15757 16.5035 3.82789 16.1728C3.49617 15.8421 2.95492 15.6655 2.24834 15.7826C2.04547 15.8162 1.83716 15.7882 1.6504 15.7022C1.46363 15.6161 1.30699 15.476 1.20078 15.2999C0.670873 14.4218 0.276177 13.469 0.0299741 12.4735C-0.0193995 12.2741 -0.00781978 12.0644 0.0632169 11.8716C0.134254 11.6788 0.261483 11.5118 0.428458 11.3921C1.0118 10.9751 1.27061 10.4677 1.27061 9.99941C1.27061 9.53212 1.0118 9.02374 0.428458 8.60677C0.261483 8.48705 0.134254 8.32 0.0632169 8.12721C-0.00781978 7.93442 -0.0193995 7.72476 0.0299741 7.52532C0.27626 6.53013 0.670954 5.57768 1.20078 4.69999C1.30699 4.5239 1.46363 4.38375 1.6504 4.29769C1.83716 4.21163 2.04547 4.18362 2.24834 4.21729C2.95492 4.33334 3.49617 4.15772 3.82687 3.82702C4.15757 3.49632 4.33421 2.95406 4.21713 2.24747C4.18369 2.04476 4.2118 1.83667 4.29785 1.65011C4.3839 1.46355 4.52393 1.30708 4.69983 1.20093C5.57751 0.671092 6.52998 0.276401 7.52517 0.030129C7.7246 -0.019245 7.93427 -0.00766504 8.12706 0.063372C8.31985 0.134409 8.4869 0.261638 8.60662 0.428613C9.02461 1.01093 9.53197 1.27077 10.0003 1.27077C10.4676 1.27077 10.976 1.01093 11.3929 0.428613C11.5126 0.261638 11.6797 0.134409 11.8725 0.063372C12.0653 -0.00766504 12.276 -0.019245 12.4754 0.030129ZM10.0003 4.86431C8.63838 4.86431 7.33223 5.40533 6.36922 6.36835C5.40621 7.33137 4.86518 8.6375 4.86518 9.99941C4.86518 11.3613 5.40621 12.6675 6.36922 13.6305C7.33223 14.5935 8.63838 15.1345 10.0003 15.1345C11.3622 15.1345 12.6683 14.5935 13.6313 13.6305C14.5944 12.6675 15.1354 11.3613 15.1354 9.99941C15.1354 8.6375 14.5944 7.33137 13.6313 6.36835C12.6683 5.40533 11.3622 4.86431 10.0003 4.86431Z"
  />
  <circle cx="10" cy="10" r="4" id="inner-circle"/>
</svg>
